<svg width="157" height="32" viewBox="0 0 157 32" fill="none" xmlns="http://www.w3.org/2000/svg">
<path d="M32.0404 15.3266C32.0404 14.6589 31.9691 13.999 31.8242 13.3469C31.8175 13.2728 31.8169 13.1981 31.8029 13.1251C31.367 10.8258 30.469 8.72198 29.1189 6.81248C28.3612 5.74203 27.5008 4.76256 26.4849 3.92743C26.418 3.86341 26.3546 3.79545 26.2838 3.73704C23.4718 1.41867 20.2486 0.165699 16.6043 0.0146234C15.5861 -0.0274981 14.5701 0.0174315 13.5654 0.211752C13.4817 0.218492 13.3969 0.218492 13.3149 0.233655C11.1695 0.638584 9.15384 1.38105 7.3325 2.59976C3.43205 5.20905 1.01877 8.81971 0.226885 13.448C-0.306655 16.5667 0.103328 19.5921 1.42482 22.4879C4.42163 29.0543 11.616 33.3889 19.4085 31.5917C25.6559 30.1506 29.6754 26.1811 31.5305 20.0454C31.9944 18.511 32.1196 16.9267 32.0404 15.3266ZM30.3595 19.7084C28.6617 25.1741 25.1443 28.9077 19.5562 30.268C13.3289 31.7832 8.17774 29.7496 4.23404 24.7377C2.19031 22.1408 1.15749 19.1406 1.21814 15.8225C1.29396 11.6974 2.90413 8.21316 5.85713 5.36237C7.85762 3.43096 10.2366 2.15945 12.9622 1.55852C12.9976 1.55065 13.0301 1.53156 13.0644 1.51752C13.0801 1.53212 13.0964 1.54335 13.1133 1.55178C13.1284 1.53268 13.1447 1.5164 13.1621 1.50404C13.8327 1.41306 14.5005 1.29624 15.1778 1.25974C19.0299 1.05531 22.4311 2.21224 25.4156 4.63957C26.3776 5.4219 27.233 6.316 27.9518 7.31344C29.4334 9.37122 30.4494 11.6368 30.7605 14.1849C30.8728 15.1014 30.8874 16.0186 30.8605 16.9385H30.8588C30.8588 16.9385 30.8537 16.9413 30.8509 16.9435C30.8537 16.9475 30.8565 16.9514 30.8599 16.9548C30.7582 17.8848 30.6381 18.8126 30.3595 19.7084Z" fill="white"/>
<path d="M28.4876 15.8248C24.4041 11.7733 20.3183 7.72398 16.2387 3.66852C16.0814 3.51239 16.0039 3.48544 15.8298 3.65954C12.8459 6.64118 9.85418 9.61496 6.86355 12.5904C5.78355 13.6648 4.70187 14.7381 3.62075 15.8119C3.49214 15.8933 3.38656 15.9781 3.5747 16.1084C3.74038 16.2662 3.90606 16.4235 4.07174 16.5813C4.14699 16.6633 4.21888 16.7487 4.29751 16.8273C8.12888 20.6384 11.9631 24.4479 15.7894 28.2652C15.9781 28.4534 16.0691 28.491 16.2808 28.2787C18.4722 26.0805 20.6788 23.897 22.8787 21.7066C23.7857 20.8036 24.6854 19.8937 25.5885 18.9867C26.5759 18.0179 27.5615 17.0474 28.5522 16.0826C28.6977 15.9405 28.5556 15.8927 28.4876 15.8248ZM16.6436 25.9823V23.4022C16.6425 22.4761 16.6425 21.5494 16.6414 20.6233V20.6025C16.6408 20.1234 16.6408 19.6449 16.6397 19.1664V19.1462C16.6391 18.6144 16.6385 18.0825 16.6374 17.5507V17.545C16.6374 17.3311 16.6369 17.1176 16.6363 16.9037V16.8806C16.6363 16.7397 16.6425 16.6549 16.8463 16.6554C18.8418 16.6616 20.8372 16.6627 22.8321 16.6633H22.8489C23.8402 16.6633 24.8315 16.6633 25.8227 16.6639C25.8575 16.6639 25.8924 16.67 25.9901 16.6785C22.8894 19.8089 19.7994 22.8799 16.6436 25.9823ZM16.6459 6.05822C16.7705 6.09585 16.8362 6.18739 16.9115 6.26096C17.9342 7.26289 18.9552 8.26707 19.9774 9.26956C20.0437 9.33471 20.1155 9.39368 20.1846 9.45546C20.2178 9.48803 20.2509 9.52005 20.284 9.55206C20.4037 9.70257 20.5379 9.83905 20.6923 9.95418C20.7109 10.0036 20.7446 10.0379 20.7945 10.0553C20.8198 10.112 20.8603 10.153 20.9175 10.1766C21.3758 10.6416 21.8296 11.1106 22.2924 11.5711C23.2915 12.564 24.2951 13.553 25.2965 14.5432C25.3184 14.5993 25.3571 14.6392 25.4133 14.6611C25.4318 14.7139 25.4672 14.7499 25.52 14.7684C25.5419 14.8251 25.5807 14.8644 25.6374 14.8863C25.6565 14.9386 25.6919 14.9739 25.7441 14.993C25.8059 15.0711 25.8677 15.1486 25.9283 15.225C25.8688 15.2997 25.798 15.2677 25.7385 15.2677C22.8096 15.2682 19.8802 15.2643 16.9514 15.2705C16.72 15.271 16.6357 15.2385 16.6369 14.9734C16.6414 13.4896 16.6419 12.0052 16.6408 10.5214V10.5057C16.6447 10.3018 16.6492 10.1002 16.6593 9.89633C16.6683 9.70594 16.6537 9.51331 16.6402 9.32011V9.30494C16.6391 8.27437 16.6374 7.24436 16.6369 6.21379C16.6369 6.16886 16.6419 6.12337 16.6459 6.05822ZM15.3058 6.16212C15.3406 6.2267 15.353 6.30084 15.3496 6.38957C15.3479 6.43282 15.3451 6.49123 15.3592 6.53616V7.16012C15.3171 7.22863 15.3491 7.32692 15.3491 7.40105C15.3429 9.94632 15.344 12.4916 15.344 15.0368C15.344 15.0784 15.3463 15.1194 15.3513 15.1587C15.3339 15.2306 15.2834 15.2733 15.1379 15.2727C12.2107 15.2637 9.28357 15.2665 6.35585 15.2665H6.14299C9.20045 12.1962 12.2141 9.18532 15.3058 6.16212ZM15.3603 25.7801C15.3603 25.8048 15.3519 25.8289 15.339 25.9036C12.2253 22.8546 9.17686 19.7915 6.0902 16.661H7.71665C10.1765 16.661 12.637 16.6622 15.0975 16.6594C15.2626 16.6594 15.367 16.6526 15.3665 16.8834C15.3575 19.8488 15.3609 22.8142 15.3603 25.7801Z" fill="white"/>
<path d="M11.58 25.5403C10.9724 25.5425 10.3641 25.5464 9.75646 25.533C7.90423 25.4908 6.57432 24.1469 6.55129 22.2975C6.54399 21.6898 6.54904 21.0821 6.5468 20.4739C6.5468 20.3829 6.56477 20.2863 6.48727 20.2105C6.12895 19.8612 5.77232 19.5113 5.37301 19.1204C5.42243 20.3037 5.34493 21.4258 5.42019 22.5474C5.57688 24.8731 7.32633 26.5939 9.65368 26.6663C10.7095 26.6989 11.7671 26.6759 12.824 26.677C12.8656 26.677 12.9189 26.6927 12.9459 26.6242C12.61 26.3069 12.2691 25.9896 11.9344 25.6655C11.8316 25.5655 11.7182 25.5397 11.58 25.5403Z" fill="white"/>
<path d="M20.5154 6.46427C21.1051 6.45753 21.6943 6.45472 22.2834 6.46652C23.9671 6.49909 25.3611 7.76161 25.5442 9.43693C25.6172 10.1069 25.5576 10.7831 25.5678 11.456C25.5689 11.5481 25.5369 11.6497 25.6003 11.7289C25.9328 12.1389 26.3203 12.4938 26.7185 12.8521C26.7039 11.616 26.8303 10.3911 26.6455 9.17633C26.3473 7.21179 24.8214 5.64543 22.9433 5.39775C21.6898 5.23208 20.4267 5.37304 19.1681 5.32025C19.491 5.66228 19.7977 5.97791 20.0931 6.30309C20.2121 6.43394 20.3464 6.46652 20.5154 6.46427Z" fill="white"/>
<path d="M6.40021 11.8261C6.5131 11.7098 6.54848 11.5834 6.54567 11.4239C6.53613 10.891 6.53556 10.358 6.5395 9.82501C6.55466 7.91325 7.94916 6.50134 9.8626 6.46596C10.4422 6.45585 11.0218 6.46764 11.6014 6.46708C11.6845 6.46708 11.8002 6.4873 11.8457 6.44293C12.2107 6.08068 12.5629 5.70608 12.9111 5.34215C11.8086 5.34215 10.6949 5.29498 9.58628 5.35226C7.39147 5.46627 5.65831 7.15787 5.4303 9.34594C5.31011 10.5023 5.40895 11.6626 5.42524 12.8555C5.74986 12.5118 6.0711 12.1653 6.40021 11.8261Z" fill="white"/>
<path d="M26.7118 21.0232C26.7213 20.4031 26.714 19.7831 26.714 19.0929C26.358 19.4596 26.0232 19.75 25.7424 20.0948C25.5801 20.1925 25.5414 20.3397 25.5408 20.5228C25.5397 21.2804 25.6127 22.0436 25.5099 22.7945C25.2976 24.3463 24.0373 25.465 22.4552 25.5302C21.792 25.5577 21.127 25.5358 20.4626 25.5369C20.3615 25.5375 20.2599 25.5195 20.1751 25.6077C19.8353 25.9598 19.491 26.308 19.1164 26.6905C20.3868 26.659 21.619 26.7388 22.8495 26.6365C23.0163 26.6231 23.1831 26.5882 23.3465 26.5512C25.1825 26.1328 26.6343 24.4153 26.6562 22.6389C26.6668 22.6131 26.6781 22.5884 26.6781 22.5592V22.512C26.7539 22.0178 26.7045 21.5191 26.7118 21.0232Z" fill="white"/>
<path d="M146.876 23.8537V7.46344H150.621V10.1951H150.792C151.09 9.24901 151.603 8.51984 152.328 8.00765C153.061 7.48834 153.897 7.22868 154.836 7.22868C155.049 7.22868 155.288 7.23935 155.551 7.26069C155.821 7.27492 156.045 7.29982 156.223 7.33539V10.8887C156.059 10.8318 155.8 10.782 155.444 10.7394C155.096 10.6896 154.758 10.6647 154.43 10.6647C153.726 10.6647 153.093 10.8176 152.531 11.1235C151.976 11.4223 151.539 11.8384 151.219 12.372C150.898 12.9055 150.738 13.5209 150.738 14.218V23.8537H146.876Z" fill="white"/>
<path d="M136.92 24.1738C135.277 24.1738 133.858 23.8323 132.663 23.1494C131.475 22.4594 130.561 21.4848 129.92 20.2256C129.28 18.9594 128.96 17.469 128.96 15.7546C128.96 14.0686 129.28 12.5889 129.92 11.3156C130.568 10.0351 131.471 9.03915 132.631 8.32777C133.79 7.60928 135.153 7.25003 136.718 7.25003C137.728 7.25003 138.681 7.41365 139.577 7.74088C140.481 8.061 141.278 8.55897 141.968 9.23478C142.665 9.9106 143.213 10.7714 143.611 11.8171C144.009 12.8557 144.209 14.0935 144.209 15.5305V16.715H130.774V14.1113H140.506C140.499 13.3715 140.339 12.7134 140.026 12.1372C139.713 11.5539 139.275 11.095 138.713 10.7607C138.158 10.4263 137.511 10.2592 136.771 10.2592C135.981 10.2592 135.288 10.4512 134.69 10.8354C134.093 11.2124 133.627 11.7104 133.292 12.3293C132.965 12.9411 132.798 13.6133 132.791 14.3461V16.6189C132.791 17.5722 132.965 18.3903 133.314 19.0732C133.662 19.749 134.15 20.2683 134.776 20.6311C135.402 20.9868 136.134 21.1647 136.974 21.1647C137.536 21.1647 138.044 21.0864 138.5 20.9299C138.955 20.7663 139.35 20.528 139.684 20.215C140.019 19.902 140.271 19.5143 140.442 19.0519L144.049 19.4573C143.821 20.4106 143.387 21.2429 142.747 21.9543C142.114 22.6586 141.303 23.2063 140.314 23.5976C139.325 23.9817 138.194 24.1738 136.92 24.1738Z" fill="white"/>
<path d="M123.93 24.0884C123.282 24.0884 122.727 23.8608 122.265 23.4055C121.803 22.9502 121.575 22.3954 121.582 21.7409C121.575 21.1006 121.803 20.5529 122.265 20.0976C122.727 19.6423 123.282 19.4147 123.93 19.4147C124.556 19.4147 125.1 19.6423 125.562 20.0976C126.032 20.5529 126.27 21.1006 126.277 21.7409C126.27 22.1748 126.156 22.5696 125.936 22.9253C125.722 23.281 125.438 23.5656 125.082 23.779C124.733 23.9853 124.349 24.0884 123.93 24.0884Z" fill="white"/>
<path d="M107.703 14.25V23.8537H103.84V7.46344H107.532V10.2485H107.724C108.101 9.33082 108.702 8.60165 109.528 8.061C110.36 7.52035 111.388 7.25003 112.611 7.25003C113.742 7.25003 114.728 7.4919 115.567 7.97564C116.414 8.45938 117.068 9.16009 117.531 10.0778C118 10.9955 118.231 12.1088 118.224 13.4177V23.8537H114.361V14.0153C114.361 12.9197 114.077 12.0625 113.508 11.4436C112.946 10.8247 112.167 10.5153 111.171 10.5153C110.495 10.5153 109.894 10.6647 109.367 10.9634C108.848 11.2551 108.439 11.6784 108.14 12.2333C107.849 12.7881 107.703 13.4604 107.703 14.25Z" fill="white"/>
<path d="M89.9928 14.25V23.8537H86.13V7.46344H89.8221V10.2485H90.0142C90.3912 9.33082 90.9923 8.60165 91.8175 8.061C92.6499 7.52035 93.6778 7.25003 94.9014 7.25003C96.0325 7.25003 97.0177 7.4919 97.8572 7.97564C98.7037 8.45938 99.3582 9.16009 99.8206 10.0778C100.29 10.9955 100.521 12.1088 100.514 13.4177V23.8537H96.6514V14.0153C96.6514 12.9197 96.3668 12.0625 95.7977 11.4436C95.2357 10.8247 94.4568 10.5153 93.4608 10.5153C92.785 10.5153 92.1839 10.6647 91.6575 10.9634C91.1382 11.2551 90.7291 11.6784 90.4303 12.2333C90.1387 12.7881 89.9928 13.4604 89.9928 14.25Z" fill="white"/>
<path d="M74.1929 24.1845C73.1543 24.1845 72.2188 23.9995 71.3865 23.6296C70.5613 23.2526 69.9068 22.6977 69.4231 21.965C68.9465 21.2322 68.7081 20.3288 68.7081 19.2546C68.7081 18.3298 68.8789 17.5651 69.2203 16.9604C69.5618 16.3557 70.0277 15.872 70.6182 15.5092C71.2086 15.1464 71.8738 14.8725 72.6136 14.6875C73.3606 14.4955 74.1324 14.3567 74.9292 14.2714C75.8895 14.1718 76.6685 14.0829 77.2661 14.0046C77.8636 13.9192 78.2976 13.7912 78.5679 13.6205C78.8453 13.4426 78.9841 13.1687 78.9841 12.7988V12.7348C78.9841 11.9309 78.7457 11.3085 78.2691 10.8674C77.7925 10.4263 77.106 10.2058 76.2097 10.2058C75.2635 10.2058 74.513 10.4121 73.9581 10.8247C73.4104 11.2373 73.0405 11.7246 72.8484 12.2866L69.2417 11.7744C69.5262 10.7785 69.9957 9.94616 70.6502 9.27746C71.3047 8.60165 72.105 8.09657 73.0511 7.76222C73.9973 7.42076 75.043 7.25003 76.1883 7.25003C76.978 7.25003 77.764 7.34251 78.5466 7.52747C79.3291 7.71242 80.044 8.01832 80.6914 8.44515C81.3387 8.86486 81.858 9.43753 82.2493 10.1631C82.6477 10.8887 82.8469 11.7958 82.8469 12.8842V23.8537H79.1334V21.6022H79.0054C78.7706 22.0574 78.4398 22.4843 78.013 22.8826C77.5933 23.2739 77.0633 23.5905 76.4231 23.8323C75.79 24.0671 75.0466 24.1845 74.1929 24.1845ZM75.1959 21.3461C75.9714 21.3461 76.6436 21.1931 77.2127 20.8872C77.7818 20.5742 78.2193 20.1616 78.5252 19.6494C78.8382 19.1372 78.9947 18.5788 78.9947 17.9741V16.0427C78.8738 16.1423 78.6675 16.2348 78.3758 16.3201C78.0913 16.4055 77.7711 16.4802 77.4155 16.5442C77.0598 16.6083 76.7076 16.6652 76.3591 16.715C76.0105 16.7648 75.7081 16.8074 75.452 16.843C74.8758 16.9213 74.3601 17.0493 73.9048 17.2272C73.4495 17.405 73.0903 17.654 72.827 17.9741C72.5638 18.2871 72.4322 18.6926 72.4322 19.1906C72.4322 19.902 72.6919 20.4391 73.2112 20.8019C73.7305 21.1647 74.3921 21.3461 75.1959 21.3461Z" fill="white"/>
<path d="M66.1052 2.00003V23.8537H62.2424V2.00003H66.1052Z" fill="white"/>
<path d="M44.0629 30V7.46344H47.8617V10.1738H48.0858C48.285 9.77543 48.566 9.35216 48.9288 8.90399C49.2916 8.44871 49.7824 8.061 50.4013 7.74088C51.0202 7.41365 51.8099 7.25003 52.7702 7.25003C54.0365 7.25003 55.1783 7.5737 56.1955 8.22106C57.2199 8.86131 58.0309 9.811 58.6285 11.0701C59.2331 12.3222 59.5355 13.8588 59.5355 15.6799C59.5355 17.4797 59.2403 19.0092 58.6498 20.2683C58.0594 21.5275 57.2555 22.4878 56.2382 23.1494C55.2209 23.811 54.0685 24.1418 52.7809 24.1418C51.8419 24.1418 51.0629 23.9853 50.444 23.6723C49.8251 23.3593 49.3271 22.9822 48.9501 22.5412C48.5802 22.093 48.2921 21.6697 48.0858 21.2714H47.9257V30H44.0629ZM47.851 15.6586C47.851 16.7185 48.0004 17.6469 48.2992 18.4436C48.6051 19.2404 49.0426 19.8628 49.6117 20.311C50.1879 20.7521 50.8851 20.9726 51.7032 20.9726C52.5568 20.9726 53.2718 20.7449 53.848 20.2897C54.4242 19.8273 54.8581 19.1977 55.1498 18.4009C55.4486 17.5971 55.598 16.683 55.598 15.6586C55.598 14.6413 55.4521 13.7378 55.1605 12.9482C54.8688 12.1586 54.4349 11.5397 53.8586 11.0915C53.2824 10.6433 52.5639 10.4192 51.7032 10.4192C50.878 10.4192 50.1772 10.6362 49.601 11.0701C49.0248 11.5041 48.5873 12.1123 48.2885 12.8948C47.9969 13.6774 47.851 14.5986 47.851 15.6586Z" fill="white"/>
</svg>
